<?xml version='1.0' encoding='utf-8'?>
<svg xmlns="http://www.w3.org/2000/svg" enable-background="new 0 0 1086.851 1687.9" version="1.1" viewBox="0 0 1086.9 1687.9"> <path d="m621.67 1467.3c25.12 1.447 47.502-0.126 69.556-5.367 22.033-5.236-4.519-20.644-6.396-43.26-0.208-2.502-14.538-13.193-2.304-28.304 6.158-7.607 25.443 6.104 25.066 13.965-0.414 8.633 3.363 15.396 6.783 22.474 14.127 29.242-10.306 68.923-51.411 68.355-19.56-0.27-38.815 5.346-58.625 1.435-9.439-1.864-19.491-2.555-29.202-3.039-64.955-3.242-60.72-18.906-72.231 0.099-2.873 4.744-5.283-0.323-5.087-1.468 2.316-13.545-7.131-16.773-16.991-18.873-15.859-3.378-26.28-14.362-35.703-25.92-8.723-10.7-18.155-21.414-21.468-35.515-0.68-2.895-2.252-4.008-4.821-3.862-7.591 0.43-14.422-4.566-22.176-2.986-1.352 0.276-2.861 0.101-4.245-0.152-14.19-2.59-14.598-2.715-18.327 11.411-5.061 19.171-9.503 42.289-26.828 32.87-12.024-6.537-23.08-14.814-23.162-30.814-0.056-11.045-5.569-11.205-9.081-8.285-4.27 3.551-30.4 37.171-55.205 5.557-4.924-6.276-12.371-10.004-14.635-19.333-2.399-9.884-5.29-19.611-6.347-29.776-0.104-1-0.095-14.088-5.337-14.87-3.806-0.568-3.274 3.871-5.112 5.744-17.887 18.226 2.208 35.466 11.914 75.728 2.156 8.946-3.624 18.546 18.343 53.084 11.568 18.189 29.505 26.511 49.159 31.36 10.278 2.536 20.165 6.353 30.869 8.116 8.908 1.467 16.244-2.945 24.506-1.49 3.812 0.671 3.238-3.621 3.88-6.209 7.28-29.368 15.543-53.837 16.898-94.281 0.111-3.298-2.208-8.068 3.025-9.684 4.529-1.399 7.924 0.824 11.294 3.998 34.49 32.484 30.653 71.137 31.077 85.121 0.462 15.264-0.753 0.973 58.013-0.392 47.407-1.101 96.939 6.321 144.67 23.551 8.929 3.223 100.17 16.693 128.67-3.968 1.79-1.297 5.471-4.771 8.38-0.444 7.059 10.499-28.661 29.221-9.461 33.758 11.047 2.611 21.171 2.669 30.589-6.269 44.711-42.434 46.953-41.521 52.019-36.838 2.695 2.491 0.118 4.233-0.675 5.984-6.863 15.172-19.986 21.647-3.983 34.557 10.576 8.532 23.999 9.372 20.663-4.547-3.947-16.471 5.87-40.104 11.033-47.145 2.665-3.634 12.198-8.552 12.123 4.375-0.139 24 5.531 59.27-19.241 87.573-8.331 9.518-19.8 6.466-28.907 3.187-9.814-3.533-21.556-7.094-24.295-20.38-0.447-2.167-3.352-3.472-5.362-0.711-6.391 8.781-16.413 11.817-25.42 16.546-5.151 2.704-10.44 3.337-16.147 3.796-34.888 2.802-25.281-29.188-38.661-25.069-77.804 23.949-127.14-30.174-223.16-30.573-18.622-0.077-36.275 4.172-54.586 5.028-7.439 0.348-9.164 4.736-5.534 11.666 3.01 5.746 3.533 11.518 3.455 17.693-0.143 11.371 1.146 22.897-0.284 34.087-3.725 29.147-29.672 39.736-55.713 28.724-7.245-10.631-18.761-18.885-20.439-32.563-0.745-6.067-3.976-11.512-3.31-17.847 0.58-5.515-2.848-6.206-7.258-4.733-14.512 4.844-15.23 8.413-18.087-9.259-0.667-4.124-2.014-5.518-6.069-5.787-36.377-2.418-74.423-25.06-87.954-45.821-6.666-10.228-10.451-6.805-10.524-3.775-0.237 9.819-5.98 17.532-8.661 26.282-14.59 47.619-81.643 73.929-103.79 60.026-4.213-2.645-22.113-6.358-21.74 5.007 0.177 5.383 4.22 7.039 8.978 6.635 12.783-1.084 28.306 10.881 24.455 20.481-1.985 4.949-5.897 8.117-12.079 8.029-17.055-0.244-34.122 0.2-51.173-0.158-9.651-0.202-34.441-10.572-20.399-56.27 4.498-14.637 9.581-29.109 10.395-44.623 0.053-1.006 7.625-37.123 36.769-22.089 15.553 8.023 32.772 9.867 48.434 16.721 2.766 1.21 5.546 1.455 8.308 1.132 18.79-2.201 44.834-3.008 54.696-21.169 8.66-15.946 25.504-13.089 16.315-59.395-4.422-22.281-13.02-43.369-20.07-64.892-2.505-7.649-10.348 6.486-41.559 22.814-9.679 5.064 2.539 32.234-8.209 51.026-3.06 5.351-4.636 12.312-10.502 16.015-4.28-5.727-1.312-12.234-1.783-18.341-1.834-23.791 4.793-36.215-13.25-31.799-10.125 2.478-34.339 15.081-49.173-3.558-26.955-33.867-13.54-72.261-9.014-111.19 0.558-4.799 1.643-9.891 3.757-13.278 20.32-32.563-3.168-82.908-7.042-121.18-3.978-39.303-28.598-16.7-1.659-72.697 2.315-4.813 5.895-5.74 9.902-1.172 13.752 15.678-0.083 7.723 13.389 26.927 8.856 12.624 13.418 27.771 23.78 39.508 1.343 1.521 4.932 5.228 0.7 8.277-10.854 7.822-11.263-12.865-18.341-9.036-3.976 2.151 1.698 16.057 4.775 37.857 2.861 20.271 10.293 39.411 13.968 59.518 6.781 37.096 19.693 37.352 30.67 97.614 0.613 3.368 2.08 6.115 3.19 9.13 1.151 3.128 3.507 3.027 5.506 1.208 8.01-7.287 18.455-10.807 26.779-17.608 5.928-4.844 6.12-6.17 0.894-12.562-1.142-1.397-1.634-3.597-3.026-4.477-16.914-10.685-13.039-27.571-13.175-43.294-0.081-9.408 9.772-11.844 13.837-4.086 7.934 15.143 22.141 26.519 26.24 44.009 0.731 3.12 3.332 2.905 5.133 0.475 22.059-29.755 25.867-41.026 12.782-45.536-19.704-6.791-27.365-22.572-33.295-40.04-2.518-7.416-5.812-14.978-4.732-23.057 0.978-7.315-3.936-13.591-2.904-20.75 7.958-55.244 8.427-43.715 16.971-80.198 1.402-5.988 5.931-10.566 6.513-16.883 0.192-2.088 7.588-3.435 7.603 2.795 8e-3 3.374-2.103 6.09-2.923 9.275-5.316 20.654-8.188 41.81-13.44 62.498-3.017 11.884 0.334 24.257 4.735 35.625 2.804 7.245 3.473 15.667 9.939 21.274 1.761 1.527 3.563 3.946 5.931 2.501 2.157-1.316 2.027-4.217 0.966-6.429-14.146-29.489-11.157-13.239-13.825-57.548-0.473-7.859 2.905-13.536 6.71-19.25 11.197-16.811 23.609 20.232 24.43 32.051 0.822 11.825 5.233 22.617 7.155 34.06 2.345 13.961 13.071 11.586 13.911 12.586 12.224 14.549 41.692-6.155 53.945-13.239 25.726-14.872 69.744-48.725 80.327-76.388 1.637-4.279-1.085-10.614-2.851-15.681-1.341-3.848-4.604-1.583-6.884-0.327-11.205 6.171-23.373 6.166-35.597 5.624-7.849-0.348-21.36-12.009-21.266-19.497 0.233-18.639-3.222-37.722 5.438-55.575 0.946-1.949 8.332-30.584 36.241-18.854 6.151 2.586 9.964-1.926 24.303 21.471 13.392 21.852 7.003 21.918 29.186 7.328 8.805-5.791 18.647-10.759 24.134-20.552 1.554-2.774 4.552-3.155 6.873-4.45 4.364-2.435 9.743-6.381 14.174-2.288 4.677 4.32 0.443 9.803-1.886 14.059-1.659 3.031-1.939 6.22-3.049 9.262-1.471 4.034-7.266 7.953-2.925 12.288 4.516 4.51 10.999 8.987 17.202 8.012 9.472-1.488 20.803-3.322 27.132-9.397 26.702-25.632 11.289-12.556 32.791-44.661 1.628-2.43 3.898-6.092 7.912-4.304 3.361 1.497 3.8 4.821 4.114 8.36 0.457 5.138-2.442 8.898-4.133 13.193-3.748 9.52 4.113 20.664 14.295 20.126 5.613-0.297 8.944-5.002 4.565-12.605-6.791-11.79 1.65-22.321 2.918-33.411 0.319-2.791 14.209-13.267 19.06 25.852 1.838 14.823-4.147 28.382-8.478 42.107-10.394 32.939-43.881 13.391-48.696 7.52-3.725-4.542-5.634-2.311-8.031 1.525-9.663 15.459-23.767 24.604-41.502 28.369-10.975 2.33-27.36-7.388-32.202-19.31-0.656-1.617-0.096-4.323-1.97-4.628-0.948-0.155-3.379 2.5-3.401 3.913-0.891 55.053-4.525 58.199 24.844 63.013 4.558 0.747 9.225-1.479 13.638-2.009 35.941-4.316 39.877-13.62 87.68-39.128 15.903-8.486 28.803-21.787 46.442-27.253 4.829-1.496 6.39-6.797 5.621-11.579-4.063-25.249-10.964-49.663-22.186-72.762-4.374-9.003-8.79-26.898-19.11-35.231-10.11-8.163-0.084-11.739 7.7-36.627 1.574-5.032 10.445-12.371 13.684-6.099 11.835 22.919 42.29 44.537 25.935 51.956-11.103 5.036 14.279 32.028 14.177 73.729-0.035 14.101-3.163 27.533-10.087 39.875-2.157 3.845-1.109 8.077-3.017 12.148-5.046 10.769-13.333 18.744-20.747 27.583-16.874 20.118-92.402 55.681-97.471 58.35-49.059 25.832-83.853-1.154-81.966-49.22 0.569-14.484-1.023-29.122 5.435-42.896 0.872-1.86 0.777-5.537-0.456-6.72-2.202-2.114-4.726 0.791-7.049 1.627-19.108 6.872-5.895 23.75-27.289 61.332-11.549 20.288-17.387 49.48-84.31 92.25-66.107 42.249-65.434 7.097-53.163 74.071 9.041 49.345 47.388 41.779 58.355 14.589 3.822-9.475 11.183-16.573 16.865-24.79 3.615-5.228 8.444-7.711 14.091-1.863 1.228 1.272 3.807 1.431 4.706 2.798 8.693 13.216 24.865 13.415 36.622 21.255 4.054 2.703 9.165 1.398 13.73 2.226 45.96 8.338 44.837 4.813 42.642-4.586-1.713-7.335-6.973-12.708-9.377-19.941-5.961-17.936-13.148-35.498-19.125-53.479-2.281-6.863-3.793-13.921-10.901-18.479-6.298-4.039-4.081-11.396-2.535-16.969 4.763-17.175 5.849-16.844 20.74-7.625 13.942 8.632 20.441 22.615 28.44 35.559 3.066 4.961 0.443 8.592-5.372 6.853-6.297-1.882-5.085 1.513-4.551 4.419 4.318 23.461 14.15 44.684 26.715 64.766 2.139 3.419 0.673 9.408 5.922 10.385 5.026 0.936 10.906 1.921 15.395 0.214 11.745-4.468 24.066-1.959 36.08-4.465 57.715-12.041 49.249 0.757 145.73-17.014 19.574-3.605 39.073-9.076 59.228-9.109 4.063-7e-3 6.914-2.986 10.755-2.901 13.086 0.291 8.332-8.163-0.359-8.558-28.091-1.278-56.075-7.552-84.104-5.249-14.325 1.177-95.49 1.332-124.28 10.587-0.876 0.282-1.885 0.127-2.826 0.233-13.518 1.518-13.719 0.555-14.86-12.7-3.275-38.035 27.474-27.59 52.355-71.06 6.305-11.016 15.687-20.195 21.766-31.722 16.409-31.117 6.56-25.106 31.628-64.524 1.408-2.214 7.677-3.363 7.994 2.361 0.56 10.109-2.151 15.228 7.459 27.571 15.889 20.408 24.341 31.114 20.634 64.216-1.833 16.367-30.548 32.023-45.702 25.468-15.898-6.877-13.74-25.773-20.269-14.37-5.631 9.834-17.231 20.772-15.391 24.451 1.577 3.153 5.195 2.609 7.502 1.891 15.28-4.756 31.689-3.873 47.466-3.324 27.687 0.962 83.792-1.771 156.52 11.171 53.223 9.471 104.8 25.908 155.68 44.059 2.93 1.045 7.658 1.697 7.56 7.023-0.088 4.77 0.601 9.853-4.973 12.059-13.695 5.419-11.539 21.216-33.104 16.703-40.097-8.392-86.025-10.449-98.964-6.409-20.715 6.466-37.896 2.126-73.181 10.29-14.969 3.463-30.079 5.62-45.16 8.212-10.475 1.8-20.53 5.411-31.174 6.979-36.316 5.348-44.038 4.985-75.651 12.024-8.24 1.834-16.746 1.708-24.992 2.712-11.518 1.402-23.198 4.339-34.86 3.52-11.029-0.775-21.264 3.674-32.122 3.294-2.972-0.104-4.432 2.269-2.465 4.672 20.16 24.637-0.616 38.323 24.108 46.577 13.323 4.448 27.299 6.987 40.884 7.717 22.055 1.182 43.963 6.539 63.704 3.006zm-515.37-67.865c37.919 0 9.302-15.274-4.877-72.226-1.976-7.935-6.844-30.846-12.699-28.728-4.668 1.689-2.965 7.04-9.257 55.662-1.005 7.766 4.141 14.435 2.988 22.186-2.295 15.429 8.746 25.173 23.845 23.106zm338.42 8.521c-4.627 0.334-9.353-0.885-13.888 0.874 3.652 1.771 8.469 2.616 10.743 5.48 7.714 9.714 18.044 15.603 28.426 21.555 5.461 3.13 11.757 12.032 16.123 7.97 4.801-4.466-4.053-11.243-6.006-17.357-7.233-22.653-20.675-19.585-35.398-18.522zm-32.466 83.035c0.149-8.255-4.559-17.747-10.239-21.176-7.579-4.575-5.581-4.436-15.326 42.247-3.567 17.085 25.259-4.198 25.565-21.071zm-8.314 101.75c4.251 0.088 6.711-0.635 9.374-1.992 8.799-4.483 9.189-6.01 2.704-12.773-7.07-7.374-16.812-9.446-25.643-13.252-3.346-1.443-5.989 0.26-7.472 4.157-1.326 3.482-5.573 4.861-3.149 10.736 5.117 12.404 16.649 9.733 24.186 13.124zm-45.766-486.16c3.47-1.008 9.194 2.457 10.862-2.738 2.671-8.315-16.134-20.768-31.949-10.858-4.311 2.702 3.314 13.596 21.087 13.596zm-1.775 292.56c-11.137-10.007-10.363-20.794-18.12-19.309-7.592 1.453 0.955 21.556 12.315 29.985 7.514 5.575 9.724-7.155 5.805-10.676zm254.97-183.71c0.551 6.657 12.053 16.365 18.844 16.132 16.105-0.552-20.592-37.259-18.844-16.132z"/> <path d="m692.54 44.216c26.918 1.033 54.501 8.584 84.953 26.839 15.761 9.449-16.851 11.243-3.311 17.777 40.121 19.36 88.511 66.788 76.684 116.67-5.64 23.786-8.261 45.783-24.822 64.969-2.431 2.816-6.967 4.735-6.847 8.658 0.639 20.912-14.414 4.557-14.527 16.385-0.302 31.584 1.435 40.827-11.488 95.638-7.282 30.883-5.264 60.411 19.006 84.69 11.761 11.765 12.557 16.751 3.603 30.626-4.963 7.691-10.688 14.654-20.687 17.863-11.796 3.786-21.679 12.489-34.58 14.413-3.635 0.542-6.938 3.226-10.306-0.08-3.984-3.911-3.645-9.443-1.584-13.231 5.929-10.896 7.631-22.992 10.164-34.613 5.108-23.435 6.407-46.092-7.309-68.866-25.669-42.623-53.241-63-45.148-76.236 4.194-6.859 11.182-4.202 17.664-1.88 7.198 2.578 18.131-2.628 20.405 5.639 1.09 3.962 1.385 8.044-4.18 10.282-13.808 5.553 23.313 29.38 28.904 70.712 3.181 23.52 7.67 47.294 0.982 71.043-1.189 4.221-7.274 8.629-3.827 12.194 5.263 5.443 9.001-2.433 13.037-4.546 18.69-9.785 18.371-9.956 8.211-28.781-6.916-12.814-11.466-26.428-11.331-41.257 0.155-16.986-8.135-11.319 2.263-68.023 0.506-2.759 0.563-5.63 0.551-8.448-0.102-24.399 4.07-48.269 8.109-72.227 3.147-18.666-3.586-36.313 4.576-42.666 1.749-1.361 5.643-3.014 2.072-6.416-1.983-1.889-3.51-5.072-6.739-4.439-8.194 1.606-0.584 6.386-13.366 29.477-6.318 11.413-13.416 15.502-25.256 11.313-6.691-2.367-9.567 0.373-13.283 4.09-28.231 28.245-53.291 57.778-91.042 73.647-28.119 11.82-7.248 19.494-7.273 42.081-0.018 16.588-13.146 25.523-28.536 19.273-25.882-10.511-28.298-32.276-33.887-18.701-2.756 6.694-6.245 7.729-11.283 2.142-2.656-2.946-4.949-0.539-7.459 0.678-13.021 6.315-26.932 3.106-40.375 2.769-5.827-0.146-10.099-6.188-12.547-12.145-1.101-2.681-5.34-5.359-5.169 1.042 0.62 23.192-7.999 59.708-28.247 88.908-15.909 22.943-53.88 20.647-71.425-55.771-4.351-18.952-27.531-12.37-40.124-42.231-7.872-18.668-15.566-37.228-13.563-57.798 3.19-32.749 11-77.901 15.72-76.47 3.632 1.101 4.628 4.664 3.863 8.071-1.955 8.71-9.594 69.023-8.496 77.852 2.196 17.66 6.809 33.6 23.385 43.762 15.807 9.69 23.633 10.049 38.993-0.176 7.972-5.307 40.086-32.622 18.795-42.129-18.703-8.351-31.916-9.296-32.776-27.62-0.398-8.474-6.091-12.152 0.12-16.89 3.274-2.498 7.332-2.403 10.714-0.412 10.983 6.465 24.602 9.266 31.155 22.08 0.509 0.995 2.3 1.791 3.541 1.862 2.67 0.151 2.52-2.21 2.755-3.989 6.769-51.255 38.622-85.003 52.097-102.12 1.929-2.45 5.038-4.11 7.851-5.696 5.454-3.074 12.418-9e-3 13.838 6.354 0.617 2.765 1.568 5.347 2.3 8.015 5.775 21.048-18.055 12.49-27.162 35.105-2.835 7.039-9.293 13.599-13.916 20.607-9.663 14.649-13.073 31.557-19.28 47.456-1.9 4.867-1.47 8.165 2.231 11.187 5.053 4.127 9.082 9.192 14.73 12.951 6.936 4.617 12.831 11.243 18.054 17.884 8.397 10.677 25.243 17.295 36.936 10.922 6.142-3.347 35.594-13.566 30.791-29.021-8.794-28.298-7.492-57.453-7.352-86.492 0.024-4.954 3.377-6.802 7.471-4.232 41.885 26.294 38.021 60.543 37.869 81.565-0.04 5.494 2.89 6.284 7.339 4.821 28.248-9.292 107.4-68.557 121.38-100.35 6.352-14.44 8.115 19.265 24.664 3.161 8.721-8.486 13.083-19.516 14.018-31.189 0.533-6.66 3.858-12.527 3.659-19.216-0.041-1.38 2.01-3.704 3.414-3.979 1.217-0.239 2.906 1.775 4.347 2.847 3.594 2.673 2.884 6.607 3.163 10.355 0.728 9.786 8.32 14.433 17.486 10.765 6.694-2.679-8.126-14.018-6.094-32.391 0.207-1.871-0.106-3.993 0.687-5.563 4.098-8.117 8.586 1.918 11.095 5.342 8.178 11.162 8.403 24.485 10.725 37.137 1.714 9.339-3.786 15.694-11.542 20.252-2.269 1.333-6.312 1.853-5.081 5.551 0.333 1 4.826 21.833 9.887 12.29 4.887-9.215 45.35-66.666 3.365-104.4-14.812-13.313-26.787-30.229-45.187-38.903-16.645-7.847-25.843-24.203-41.264-33.091-5.599-3.227-2.84-9.516-5.234-14.042-2.512-4.75-3.92-6.49-8.979-2.269-13.409 11.185-29.492 18.789-42.242 30.956-3.329 3.176-10.401 4.751-12.249 0.697-3.817-8.377 13.039-11.758 9.737-18.289-2.495-4.935-10.262-2.223-15.638-2.107-70.705 1.522-102.56 21.023-140.6 31.042-25.001 6.584-47.696 18.497-67.708 34.046-56.247 43.701-56.897 43.942-92.092 91.715-23.734 32.217-33.775 109.32-35.279 116.3-1.677 7.793 1.746 17.96 2.109 25.989 0.483 10.682 1.744 21.329 3.755 31.831 13.946 72.819 29.581 62.23 37.524 71.081 2.811 3.132 3.279 8.136 1.098 11.736-3.196 5.274-11.42 5.19-16.672 7.573-39.101 17.745-29.743 26.085-70.587 33.487-1.823 0.33-4.316-0.073-4.982 1.723-2.504 6.757 21.175 6.149 23.105 22.963 0.343 2.989 3.746 3.581 6.511 1.206 4.806-4.128 10.223-7.714 14.339-12.437 5.663-6.499 13.466-10.166 19.403-16.191 4.051-4.111 6.427-0.502 6.578 2.655 0.551 11.47 3.131 23.737-11.01 30.378-4.035 1.895-6.897 6.39-10.143 9.838-5.826 6.19-12.705 10.64-20.032 15.055-23.644 14.246-68.908 62.358-84.322 79.645-21.01 23.562-22.571 30.713-27.056 22.938-11.419-19.434 9.496-38.866 21.185-52.278 19.56-22.442 43.677-50.215 70.804-63.536 12.448-6.085 4.576-14.864-2.656-16.355-8.137-1.678-15.447-6.719-24.269-5.736-6.735 0.75-7.424-5.133-8.316-9.212-2.833-12.954 2.046-9.008 58.821-41.462 9.141-5.225 17.931-12.398 27.396-16.868 6.864-3.242 13.94-4.559 7.13-13.457-34.863-45.55-34.934-160.68-15.566-214.33 29.134-80.711 99.168-137.87 176.65-172.21 56.842-25.188 123.58-39.858 187.53-37.403zm-209.4 344.32c2.357-11.668-4.323-19.342-12.149-26.611-7.204-6.69-8.064-6.686-11.91 2.607-5.77 13.944-9.846 33.062-20.179 38.641-7.942 4.288-15.809 9.272-24.85 11.759-8.495 2.337-9.012 3.627-6.336 11.434 11.626 33.918 17.052 38.084 25.148 40.112 11.185 2.802 25.68-5.917 30.513-16.285 6.641-14.247 10.409-29.501 16.382-43.937 2.384-5.761 4.419-11.292 3.381-17.72zm114.19-74.273c-7.397-37.668-28.516-31.766-21.941-21.634 1.973 3.041 1.845 6.299 1.705 9.559-0.504 11.751 4.651 23.002 2.979 34.855-0.647 4.59 4.482 10.063 9.391 1.972 4.625-7.624 4.419-16.854 7.866-24.752zm14.253 78.501c1.736 0 3.145 0.072 4.544-0.015 7.257-0.451 8.52-9.831 1.395-10.901-3.065-0.461-19.31-8.052-22.748 1.194-2.264 6.09 12.094 11.008 16.809 9.722z"/> <path d="m363.92 746.08c-2.73 21.77 2.667 43.159 3.271 64.806 0.35 12.517 10.635 19.813 21.264 25.679 15.946 8.802 30.394 0.892 44.913-3.829 6.208-2.018 5.359-8.14 3.127-13.334-63.412-147.59-25.096-58.85-47.708-118.66-5.979-15.814 8.687-38.709 18.678-39.365 15.075-0.99 48.698 56.808 31.418 51.876-1.59-0.454-2.616-2.027-4.131-2.689-3.053-1.333-6.521 1.85-6.828 5.167-0.717 7.74 6.948 16.044 10.295 22.45 21.379 40.919 28.327 97.143-4.783 129.88-23.213 22.951-33.763-0.209-35.555 20.516-1.503 17.384 15.039 91.006 61.412 98.427 32.776 5.245 82.363-47.871 106.36-98.093 26.418-55.279 27.571-50.63 10.08-77.503-53.084-81.555-107.26-102.53-130.62-134.34-27.217-37.06-54.759-43.14-61.489-68.247-3.961-14.778-30.842-5.857-28.388-34.781 1.748-20.605 3.87-22.38 21.663-12.689 13.037 7.1 25.16 15.884 39.735 20.001 1.539 0.435 22.187 11.713 5.483 18.485-1 0.405-13.991 1.28-6.353 8.422 133.78 125.09 196 163.79 186.49 266.47-1.875 21.209-9.118 41.782-20.443 60.122-23.738 38.44-88.051 119.45-139.5 76.787-16.602-13.768-30.565-28.629-37.69-48.626-6.793-19.063-15.584-37.846-15.153-58.884 0.154-7.516-3.866-14.445-3.129-22.19 0.264-2.769-2.625-4.59-5.42-5.808-19.036-8.293-27.613-23.464-28.504-43.666-0.076-1.723 1e-3 -4.113-2.733-4.058-2.31 0.047-2.801 2.08-3.298 3.84-21.416 75.731-104.76 76.155-115.6 10.089-8.893-54.221 43.761-124.63 32.023-132.93-14.692-10.386-82.507 138.84-86.397 146.82-5.12 10.494-12.595 22.769-24.853 19.933-24.937-5.769-28.054-107.43 20.226-179 5.673-8.409 11.314-1.787 7.628 6.818-8.016 18.72-17.503 36.821-24.558 55.924-11.035 29.877-15.61 73.123 0.697 74.639 23.252 2.162 54.214-114 107.93-159.7 15.835-13.472 23.387 2.808 21.613 13.32-6.247 37.014-32.394 105.8-32.747 106.82-7.654 22.002-1.255 60.891 32.772 52.206 25.281-6.452 26.014-5.813 29.105-8.785 35.607-34.24 28.191-27.2 25.725-63.049-5.198-75.582-16.31-79.234 8.721-107.08 2.393-2.662 3.96-0.882 5.623 0.726 5.502 5.319 5.658 12.887 6.395 19.41 2.163 19.122 5.011 38.297 3.217 57.669z"/> <path d="m500.76 524.01c-2.558-12.734 3.009-24.902 2.814-37.7-0.148-9.736 11.954-14.886 19.841-8.959 19.499 14.655 12.121 29.18 32.663 52.965 3.44 3.983 5.966 10.051 6.175 15.278 0.972 24.217 27.916 51.407 41.125 68.365 6.562 8.425 42.932 31.233 85.935 26.096 10.82-1.292 21.067-18.195 17.999-29.581-44.01-163.35-56.152-165.28-64.584-231.81-1.698-13.394 6.817-19.228 15.121-6.906 24.378 36.177 24.302 35.359 24.48 38.379 0.129 2.186-1.368 4.627-3.556 4.687-2.318 0.064-3.98-2.377-6.256-2.824-11.994-2.357-3.79 14.912 31.665 132.3 1.874 6.204 4.865 30.143 10.586 32.261 0.827-0.387 1.383-1.024 1.669-1.913 4.328-8.095 10.253-15.371 8.803-25.783-1.245-8.943 4.789-14.596 12.021-18.493 3.847-2.073 6.803-1.64 7.726 4.134 1.194 7.477-6.964 11.119-6.87 15.79 0.102 5.048 6.522 10.04 2.253 16.351-9.183 13.575 2.484 26.789-12.146 35.182-18.169 10.424-0.661 27.005-15.194 51.671-7.29 12.373-23.709 21.14-37.492 17.243-9.813-2.774-19.997-3.622-29.681-7.298-7.896-2.998-18.615 2.905-19.906 11.065-2.697 17.044-17.333 20.897-11.838 27.082 24.464 27.533 89.983 215.68 26.141 312.09 6.225-9.4 13.884-174.21-43.377-251.96-12.519-16.999-24.312-35.943-38.058-51.839-13.361-15.45-33.242-27.649-48.467-41.476-58.057-52.725-77.901-81.901-94.452-97.977-10.094-9.805-20.864-18.951-30.041-29.658-5.742-6.813-10.46-14.186-18.645-18.451-6.769-3.527-1.078-13.112 8.104-8.537 14.744 7.346 30.793 9.88 46.756 12.552 6.862 1.149 13.407 3.984 20.705 3.152 17.648-2.013 5.845 25.235 41.957 51.638 20.683 15.121 5.841 29.441 125.73 71.491 2.188 0.767 4.306 2.828 5.915-0.115 2.322-4.248-1.068-7.56-5.599-9.521-42.96-18.595-56.247-85.284-59.136-90.407-1.723-3.056-2.666-9.271-5.9-8.167-6.145 2.098-0.058 6.826-0.282 10.349-0.984 15.46 13.335 36.883-12.25 50.57-8.228 4.401-28.153-18.597-29.315-37.76-0.88-14.52-5.75-28.739-3.138-43.558zm34.056 36.449c-0.585-6.938 0.065-10.632-1.714-14.314-2.775-5.743-3.05-12.912-0.904-17.937 4.187-9.808-2.812-14.428-6.77-20.605-4.11-6.415-9.634-3.235-10.733 2.627-5.881 31.371 3.895 64.58 5.332 67.02 2.057 3.494 3.719 3.697 6.367 1.358 6.438-5.687 9.151-12.833 8.422-18.149zm183.24 33.399c2.065-1.361 4.037-2.788 3.95-5.456-0.097-2.998 1.457-6.925-3.492-7.682-2.62-0.401-4.543 0.449-4.766 3.503-0.294 4.036 2.596 6.588 4.308 9.635z"/> <path d="m230.64 1072c3.004 15.914 13.067 31.66 28.604 36.228-17.456-196.66-18.453-190.06-13.527-199.88 4.169-8.315 19.766-17.014 26.405 3.831 3.967 12.455 5.936 25.544 5.807 38.615-2.133-2.376-11.356-3.215-9.955 12.053 12.91 140.63 11.531 133.04 14.075 135.95 3.073 3.509 15.965 5.201 15.771-16.56-0.956-106.86-21.629-138.68 1.743-166.53 4.761-5.674 18.377-14.167 23.107 3.426 14.246 52.986 15.307 53.912 13.372 59.196-1.414 3.862-6.437 6.622-9.783 4.23-4.194-2.999-2.247-10.756-6.597-13.529-12.84-8.174-3.656 17.786-3.092 20.028 4.325 17.185 12.189 74.224-12.815 119.69-21.649 39.368-19.005 22.898-24.916 71.405-2.308 18.944-14.345 60.79-22.171 55.653-2.626-1.724-1.916-1.191 8.089-59.281 4.946-28.717-7.221-28.899-21.529-34.655-17.237-6.933-29.182-25.294-28.535-43.861 0.373-10.704-5.568-12.156-9.972-4.435-39.611 69.447-130.84 57.737-114.44-42.552 12.341-75.423 48.272-101.33 32.003-106.02-3.685-1.061-7.043 2.298-9.37 5.345-38.497 50.394-63.283 111.16-71.018 174.1-1.606 13.069-8.91 10.819-10.364 8.761-0.712-1.007 2.35-145.7 89.153-217.53 20.571-17.024 39.072-8.273 28.464 17.321-33.054 79.748-56.638 119.45-33.213 148.82 26.067 32.682 93.553 13.416 92.076-66.36-0.539-29.105-11.243-66.734 8.082-93.822 7.255-10.17 18.251-10.332 19.195 6.584 4.705 84.344-10.467 112.99-4.654 143.79z"/> <path d="m519.19 149.73c6.041 1.611 12.2-9e-3 17.967 2.632 6.563 3.007 7.162 4.702 1.682 9.431-1.659 1.432-4.844 1.722-3.591 4.776 0.734 1.79 3.151 1.835 5 1.615 18.757-2.232 35.252 7.688 53.238 9.978 10.57 1.346 21.268 1.859 31.848 3.848 12.032 2.262 29.216 8.244 30.691-3.846 0.787-6.452 4.934-9.968 8.979-13.75 11.488-10.739-19.316-18.284-34.641-18.822-50.283-1.765-58.071 0.158-61.488-11.131-6.12-20.211-3.651-24.419 17.091-28.557 4.087-0.815 8.219-0.889 12.394-1.95 5.246-1.334 13.328-5.436 14.55 5.901 0.286 2.659 3.914 1.399 5.989 1.455 19.617 0.531 37.194 7.497 53.663 17.43 11.846 7.145 13.068 6.9 18.621-6.41 7.865-18.849 9.855-4.093 25.15-39.884 0.883-2.066 0.406-4.571 3.678-5.031 3.902-0.548 4.654 2.224 5.824 4.751 4.648 10.039 1.136 19.01-3.736 27.733-5.88 10.527-11.258 21.464-19.341 30.49-10.961 12.24 17.649 11.79 23.169 52.557 0.942 6.952 7.034 33.365 4.151 41.533-3.438 9.741-11.939 7.876-10.716-1.58 1.492-11.542-2.27-22.118-5.753-32.797-3.562-10.92-10.96-19.415-17.817-28.143-8.564-10.902-14.612 3.185-18.362 8.184-7.469 9.957-7.364 9.769 2.546 18.536 17.12 15.145 17.831 48.576 5.894 70.647-19.805 36.62-60.793-11.54-49.329-46.682 1.995-6.117-1.422-11.267-8.58-11.398-19.296-0.353-37.217-8.476-56.42-9.057-5.568-0.169-10.74-2.68-15.837-4.996-13.782-6.263-29.652-7.58-41.464-18.803-3.257-3.095-9.57-2.856-14.372-4.469-11.296-3.796-23.952-28.495-11.033-28.383 14.393 0.124 10.107-1.207 30.355 4.192zm162.89 81.92c1.76-9.596-8.402-6.989-19.678-13.815-7.601-4.601-9.262 8.399-12.447 14.586-5.886 11.434 26.715 28.719 32.125-0.771z"/> <path d="m682.61 1510.3c-10.269 0.05-8.922-8.234-1.976-10.266 125.88-36.814 142.9-22.53 206.44-56.523 3.745-2.003 6.326-0.818 5.413-9.571-0.334-3.201-3.006-3.228-5.322-3.16-4.67 0.137-9.265-0.339-14.01 0.951-15.91 4.326-28.058-8.28-24.132-24.413 3.341-13.728 11.918-39.83 25.435-36 6.616 1.875 13.625 4.136 18.182 9.71 19.901 24.339 24.063 48.028 6.385 76.693-16.796 27.234-107.98 45.654-120.57 49.478-15.499 4.707-21.293 2.739-95.843 3.101zm192.74-104.98c-1.734-7.193-10.71-7.801-10.885-1.783-0.111 3.84 2.37 4.496 5.386 4.339 2.108-0.11 4.664 0.517 5.499-2.556z"/> <path d="m877.59 1601.4c-7.943 0.386-6.98-5.52-4.904-7.876 1.657-1.881 4.135-2.772 6.487-3.641 61.315-22.678 115.78-91.047 90.886-114.58-11.622-10.982-17.387-26.342-28.663-37.773-6.991-7.087-8.362-18.279-16.274-25.588-2.471-2.283-0.766-9.029-1.072-13.725-1.091-16.721 8.291-24.461 23.775-10.84 7.311 6.431 16.145 10.876 23.616 17.285 7.225 6.198 7.658 5.78 0.219 12.041-1.667 1.403-2.382 2.652-1.147 4.676 1.453 2.379 2.498 5.051 4.188 7.232 34.08 43.967 14.669 106.27-24.903 145.6-18.226 18.11-46.445 25.936-72.208 27.188z"/> <path d="m963.02 1341.7c1.984-1.432 3.706-2.196 6.318-0.774 10.47 5.703 21.978 8.818 33.038 13.052 15.78 6.041 50.198 25.166 53.695 30.099 11.224 15.834-18.8 16.788-26.518 14.06-10.41-3.679-32.093-16.607-41.843-7.18-10.984 10.62-27.956-9.344-45.357-13.885-16.632-4.391 6.809-25.366 20.667-35.372z"/> <path d="m127.89 793.67c0.02 19.668-12.486 38.64-20.298 56.319-15.117 34.211-25.298 70.583-36.372 106.22-0.694 2.235-0.7 4.623-2.668 6.291-2.088 1.77-3.648 5.1-6.833 4.185-3.433-0.987-4.541-4.035-4.926-7.685-4.294-40.711 41.329-138.29 59.484-174.71 1.765-3.54 2.574-7.865 6.979-6.955 4.078 0.842 4.945 5.146 4.661 9.244-0.163 2.353-0.029 4.726-0.027 7.09z"/> <path d="m686.3 353.86c1.048 0.717 2.55 1.218 3.17 2.249 8.763 14.574 20.573 27.192 27.27 43.13 1.937 4.61 4.154 7.36-3.406 7.947-8.716 0.677-8.333 1.128-6.083 9.805 10.451 40.307 30.914 63.726 20.416 111.59-0.919 4.19-6.384 5.263-8.395-0.513-0.348-1-29.613-105.3-29.898-106.56-2.791-12.374 1.01-22.76-8.038-37.57-5.394-8.829-1.324-18.965 2.701-28.054 0.347-0.783 1.38-1.261 2.263-2.027z"/> <path d="m745.08 1433.8c0-3.289-0.359-5.716 0.06-8 3.495-19.036 20.365-13.611 26.875-8.644 10.247 7.816 10.298-15.066 26.896-3.405 11.65 8.185 15.163-12.475 22.261-9.83 25.976 9.683 22.202 14.404 17.122 25.092-5.709 12.012-9.445 13.281-21.633 6.434-5.354-3.008-9.705-2.3-11.585 2.816-6.664 18.133-23.118-5.808-31.162 10.025-2.642 5.201-10.021 1.906-26.658-6.55-3.729-1.895-1.826-5.817-2.176-7.938z"/> <path d="m38.091 1232.6c-0.372 13.866 5.232 28.49 7.186 42.278 0.426 3.008 2.128 5.124 2.996 7.743 1.126 3.401 3.264 5.572 7.109 5.772 9.985 0.518 7.193-29.331 13.533-29.654 3.079-0.157 3.955 3.902 4.156 5.766 2.831 26.272-0.27 33.325-9.357 49.714-3.769 6.798-12.216 7.988-16.882 2.068-10.172-12.909-18.783-43.117-18.525-58.738 1.517-91.841-3.361-96.067 5.42-96.051 5.058 9e-3 6.062 7.059 6.024 12.352-0.055 8.029-1.366 47.809-1.66 58.75z"/> <path d="m476.72 946.83c-2.323-1.692-2.556-4.488-1.399-6.269 5.567-8.573 25.786-55.594 28.475-79.215 3.381-29.701 4.925-40.162-5.64-41.525-13.331-1.72-13.407-19.97-11.088-33.154 1.721-9.781 15.413-13.191 19.198-3.573 0.816 2.073 4.149 3.642 4.168 5.462 0.235 22.459 28.103 19.385 15.137 29.74-3.961 3.163-5.615 7.059-5.35 12.264 1.396 27.425-8.097 54.116-26.708 96.815-3.315 7.607-11.117 11.348-14.326 18.784-0.214 0.494-1.637 0.465-2.467 0.671zm26.606-144.93c-0.855-1.475 0.699-4.853-2.865-4.844-6.928 0.018-7.2 10.348-0.063 10.443 3.362 0.045 2.435-3.118 2.928-5.599z"/> <path d="m759.04 133c1.626 4.943-7.17 12.179 0.275 16.439 3.119 1.785 2.193-1.583 3.019-2.676 9.198-12.168-11.112-17.209 26.364-14.707 5.784 0.386 15.516 34.305-9.226 30.303-11.302-1.828-11.333-1.774-14.047 7.247-1.274 4.235 0.869 10.585-5.224 11.986-7.335 1.687-15.032 1.592-22.435-0.092-7.485-1.703-3.908-18.052 1.869-26.264 1.062-1.51 8.304-1.841-0.115-4.606-9.036-2.968-11.574-22.195-5.106-29.215 3.569-3.873 12.303 0.958 20.104 2.14 4.345 0.659 4.841 5.218 4.522 9.445z"/> <path d="m125.84 1511.4c-6.065 4.855-11.422 5.865-18.022 3.025-13.119-5.644-24.385-12.937-27.838-28.365-3.081-13.765-15.5-40.421-4.999-40.983 3.21-0.172 5.842 1.377 6.695 4.214 3.883 12.91 9.966 38.106 31.907 32.525 7.924-2.016 6.695-15.387 13.658-14.013 3.668 0.724 5.971 2.857 6.174 6.596 1.23 22.619 0.907 30.212-7.575 37.001z"/> <path d="m139.42 1007.4c0.449-3.432-1.3-8.237 1.813-12.609 1.583-2.224 1.948-5.223 5.843-4.761 4.55 0.54 5.63 5.77 5.188 7.101-2.393 7.199-2.69 21.541 2.442 15.63 2.013-2.319 6.022-4.094 3.409-8.104-2.884-4.425-1.318-9.194-1.68-13.803-0.282-3.582 0.325-6.382 5.098-6.618 10.941-0.54 3.106 12.306 7.486 19.482 0.908 1.488 2.417 3.081 4.571 2.801 9.018-1.175-8.679-20.923 5.589-24.93 5.703-1.602 8.827 1.219 11.347 7.231 5.039 12.02 0.277 22.819-3.715 33.452-3.825 10.188-18.685 6.177-26.803 8.352-14.619 3.917-18.368 1.337-20.529-13.557-0.404-2.781-0.059-5.672-0.059-9.667z"/> <path d="m389.68 959.26c-0.352 2.298-0.111 4.93-1.178 6.826-2.406 4.276-2.456 7.794 1.183 11.361 4.453 4.364 3.452 9.411-1.273 11.817-19.32 9.836-21.85 36.294-40.842 44.271-1.67 0.701-3.29 2.453-4.963 1.003-3.71-3.217 1.413-11.736 2.541-12.58 9.666-7.23 12.026-20.036 21.335-27.452 12.789-10.188-27.034-14.647 1.99-52.794 3.928-5.163 12.869-3.855 16.102 1.839 2.751 4.843 5.87 9.64 5.105 15.709zm-8.647 4.585c-1.221-1.691-2.321-4.503-5.36-4.781-6.29-0.574-8.424 9.779-0.75 10.546 2.95 0.296 4.873-2.003 6.11-5.765z"/> <path d="m334.11 640.12c-15.737 0.547-5.392 13.287-21.229 7.256-16.152-6.151-23.653-39.525-11.674-40.874 2.067-0.233 3.787 1.284 4.483 2.868 1.652 3.76 4.584 7.057 4.212 11.641-0.511 6.298 3.291 15.894 9.762 12.896 3.935-1.823 5.464-5.188 3.796-9.338-1.555-3.87-3.04-7.932-5.465-11.243-2.796-3.817-4.459-15.169 1.359-15.552 2.824-0.186 4.915 1.054 4.504 3.862-0.674 4.606 2.98 7.831 3.155 12.084 0.237 5.783 7.6 8.364 10.242 5.457 3.555-3.91-5.474-7.031-9.088-15.987-1.644-4.074-1.595-7.273 1.998-9.946 4.595-3.419 5.107 0.676 20.054 14.937 2.973 2.838 7.825 31.108-16.109 31.939z"/> <path d="m549.86 231.55c4.992-5.212 12.025-8.299 15.418-15.5 6.477-13.746 15.109 5.484 10.789 8.422-11.707 7.962-14.845 23.52-27.455 30.817-3.129 1.811-5.804 4.972-7.789 8.086-14.673 23.022-35.572 25.521-37.883 41.68-0.902 6.304-8.383 4.743-8.14-1.644 0.376-9.865-7.941-6.084 55.06-71.861z"/> <path d="m150.44 1184.1c1.936-19.745 11.716-21.492 17.779-13.612 7.768 10.095 7.639 11.99-3.268 18.573-3.319 2.004-2.84 4.477-2.879 7.056-0.49 31.99 1.327 34.019-3.354 37.068-4.279 2.787-6.896-1.395-9.97-2.678-10.544-4.399-2.125-10.861-12.15-13.281-11.249-2.716-16.033-21.159-8.08-29.402 1.928-1.999 4.53-2.202 6.381-0.937 2.772 1.894 8.043 1.902 7.126 7.235-1.314 7.65 5.058 12.894 5.845 19.817 0.407 3.577 5.225 4.715 5.51-0.674 0.883-16.708-3.807-20.331-2.94-29.165z"/> <path d="m306.55 733.24c-9.235 11.43-10.596 25.198-10.853 39.209-0.049 2.645 1.205 4.861 3.37 5.704 2.586 1.006 3.909-1.76 5.462-3.271 2.325-2.262 4.42-4.563 5.909-7.707 2.403-5.074 13.185 0.47 9.585 6.382-8.102 13.306-13.806 29.308-24.033 24.513-5.428-2.544-10.303-5.171-11.856-12.417-6.982-32.567 16.261-70.177 22.547-67.117 3.309 1.608 5.448 7.8-0.131 14.704z"/> <path d="m472.06 1270.3c-0.352-4.957 1.388-7.752 5.627-10.487 41.793-26.965 4.896-8.921 63.364-38.674 2.931-1.492 3.856 0.181 5.021 2.645 1.654 3.5 6.837 7.89-10.862 16.613-32.258 15.9-63.911 50.379-63.15 29.903z"/> <path d="m352.23 1267.3c-5.534 3.7-8.959 9.146-13.398 13.734-12.647 13.071-25.797 14.658-21.032 6.254 3.206-5.655 6.152-11.531 10.903-16.054 14.768-14.06 29.559-28.093 45.72-40.609 13.85-10.726 7.509-14.607 15.123-12.918 13.95 3.095-20.191 38.142-37.316 49.593z"/> <path d="m531.81 463.57c-8.514-2.248-14.054 2.469-20.348 4.641-11.971 4.131-19.425 11.38-19.659 24.664-0.042 2.374-0.304 5.217-3.56 4.625-8.761-1.591-9.314-28.679 11.414-37.412 13.265-5.589 26.879-10.611 36.667-22.017 2.513-2.928 5.598-3.3 8.853-1.39 6.947 4.076 1.631 10.182 0.6 15.047-2.218 10.473-5.186 12.618-13.967 11.842z"/> <path d="m347 415.14c0.59-3.744-1.771-9.163 1.627-13.798 2.636-3.596 6.053-2.961 6.54 1.292 1.053 9.199-0.899 18.447 2.599 27.747 2.517 6.692 3.403 9.151 9.798 3.464 2.96-2.633 7.289-2.101 7.799 3.69 0.077 0.88 0.68 2.488 0.934 2.467 11.017-0.897 7.768 6.092 6.495 11.795-2.09 9.367-2.189 9.446 7.089 12.072 2.235 0.633 4.716 0.312 5.123 3.508 0.564 4.429-4.364 12.543-8.387 13.36-3.199 0.65-4.286-1.771-6.358-3.762-11.296-10.853 1.519-30.347-10.213-23.928-8.588 4.699-13.887 2.213-17.362-6.824-2.15-5.59-4.289-11.269-5.519-17.1-0.858-4.066-0.165-8.457-0.165-13.983z"/> <path d="m385.27 290.99c2.779-6.717 5.091-11.404-0.069-18.947-4.218-6.166-1.347-15.609-1.07-23.594 0.146-4.202 10.852-6.3 15.367 2.83 3.441 6.957 3.923 15.186 9.443 21.423 1.304 1.474 0.951 5.436-1.276 6.378-21.926 9.273-14.593 39.66-37.287 52.639-3.102-17.615 0.461-5.842 14.892-40.729z"/> <path d="m460.06 239.91c-1.035 3.054-3.655 2.035-5.588 0.203-7.866-7.453 15.751-36.766-6.373-63.004-0.909-1.079-2.112-1.944-2.871-3.108-0.985-1.51-7.856-27.501 11.583-10.886 28.567 24.414 9.472 58.429 3.249 76.795z"/> <path d="m933.44 1480c-5.092 10.575-5.625 24.863-11.689 34.463-6.169 9.879 12.018 3.546 12.2 3.555 7.08 0.347 4.505 11.291 0.878 13.967-3.72 2.744-7.314 5.672-11.158 8.229-8.611 5.726-17.658-9.651-15.905-20.872 2.605-16.672 11.993-30.607 16.856-46.312 0.871-2.81 21.915-20.231 8.818 6.97z"/> <path d="m334.98 1163.4c10.402 0.057 13.457 5.064 12.292 13.537-1.737 12.63-20.97 25.965-24.952 34.926-0.494 1.112-2.126 2.364-3.274 2.407-2.437 0.091-4.366 4.113-7.334 0.645-5.773-6.745 8.022-9.863 15.205-24.416 0.613-1.242 1.91-2.155 2.482-3.407 0.79-1.731-1.953-3.998-2.988-3.384-2.388 1.416-4.4 3.751-6.931 4.578-4.126 1.347-8.981 1.677-11.212-3.001-2.037-4.272-2.474-8.256 3.369-11.589 8.127-4.638 16.457-8.163 23.343-10.296z"/> <path d="m372.14 1293.4c-2.798-3.044-2.67-7.282-2.441-11.5 0.096-1.772 9e-3 -3.953 2.487-4.275 7.785-1.011 3.76 13.688 9.194 13.05 5.878-0.69-0.931-18.033 4.751-18.028 5.179 4e-3 6.399 6.757 6.166 11.986-0.232 5.226 4.09 9.882 0.16 15.815-4.692 7.084-19.902 15.371-28.172 13.471-6.351-1.459-17.328-27.519-13.502-32.683 1.33-1.796 7.227-6.079 9.654 0.587 3.522 9.676 3.501 18.894 8.737 16.57 1.729-0.766 2.954-2.298 2.966-4.993z"/> <path d="m422.99 213.74c18.076-0.02 22.916 8.127 14.047 24.141-2.283 4.123-5.59 7.467-11.179 7.1-9.477-0.622-29.084 3.63-24.457-15.327 3.259-13.356 6.708-15.898 21.589-15.914z"/> <path d="m207.7 888.78c-3.597 14.58-1.707 30.535-11.281 43.785-2.417 3.346-6.277 9.791-8.365 7.584-0.916-0.969-2.37-2.978-2.126-3.261 3.082-3.568 0.927-8.207 2.868-12.095 7.762-15.544 5.588-31.58 1.601-47.591-0.442-1.774-1.565-3.376-2.035-5.147-4.924-18.567 16.1-13.71 15.84-3.97-0.192 7.243 4.683 13.388 3.498 20.695z"/> <path d="m471.14 885.09c9.836-2.198 14.189 11.129 1.543 20.147-16.934 12.076-22.477-22.265-20.21-34.787 1.712-9.458 5.234-18.585 7.891-27.877 0.383-1.34 0.088-2.937 0.668-4.144 4.382-9.114 10.896-8.35 7.151 2.835-4.192 12.525-5.474 25.44-4.728 38.581 0.285 5.004 1.803 8.371 7.685 5.245z"/> <path d="m199.94 699.92c4.384-3.299 4.988-8.983 9.513-11.883 1.609-1.031 3.312-2.767 4.918-1.712 5.904 3.878-3.13 10.651-5.836 13.361-35.574 35.629-28.601 55.279-19.091 48.231 3.509-2.601 5.133-7.552 8.825-3.714 10.125 10.526-22.304 37.63-24.793 12.342-0.7-7.111 2.109-38.296 26.464-56.625z"/> <path d="m198.26 1464.8c5.545-0.175 9.668 1.936 9.086 8.01-1.444 15.09-8.763 27.136-20.602 36.418-1.887 1.48-4.562 1.607-6.514-0.206-1.808-1.679 0.035-3.232 0.578-4.925 1.678-5.231 5.801-8.448 9.441-12.038 7.399-7.298-0.06-14.139-6.396-7.81-4.741 4.735-6.329 7.092-8.885 5.158-5.084-3.849 1.331-25.295 23.292-24.607z"/> <path d="m323.93 1476.3c1.695 7.268-2.693 10.128-8.307 12.708-4.748 2.182-8.238 1.406-10.772-2.872-14.608-24.662-3.007-58.992 7.656-55.119 7.812 2.838 0.671 10.153-3.871 24.82-3.486 11.256-2.062 13.031 9.853 11.999 7.373-0.639 5.013 4.884 5.441 8.464z"/> <path d="m750.17 318.67c-7.429-5.41-5.451 9.993-16.647 14.396-1.537 0.605-3.222 0.833-4.839 1.234-0.231-1.838-1.228-4.028-0.57-5.457 2.847-6.181 15.453-29.421 21.882-26.745 10.243 4.263 2.172-3.556 12.14-9.892 16.562-10.528 16.417 27.636-11.966 26.464z"/> <path d="m628.17 1435.9c-9.5-0.843-15.218-8.054-22.109-13.188-3.467-2.583 12.021-27.553 19.282-18.796 3.931 4.741 12.014 4.015 14.015 10.299 2.416 7.586-6.567 11.837-6.826 19.039-0.045 1.245-2.327 2.833-4.362 2.646z"/> <path d="m576.43 458.29c-0.849 2.567 4.363 12.496-4.858 13.017-5.986 0.339-4.656-9.573-6.786-14.833-1.288-3.181-2.11-6.209-1.78-9.46 1.346-13.256-12.733-12.431-11.37-28.624 0.187-2.223-0.249-4.858 3.033-5.366 2.476-0.383 4.901-0.01 6.242 2.178 7.604 12.403 18.655 23.439 15.519 43.088z"/> <path d="m142.33 1282.6c-6.124 3.761-8.983 8.504-13.092 4.588-2.829-2.697-2.574-8.25-0.691-10.634 9.25-11.712 16.063-25.619 29.222-33.959 1.543-0.978 3.033-2.74 5.024-1.854 2.669 1.188 1.576 3.974 2.086 6.111 1.201 5.033-3.569 8.614-3.063 13.425l0.409-0.49c-10.662 4.342-17.35 12.156-20.297 23.238 0 0 0.402-0.425 0.402-0.425z"/> <path d="m520.34 324.39c-0.29-9.744 11.393-20.607 21.098-19.617 16.381 1.671 0.409 27.342-5.671 34.11-5.745 6.395-13.351 0.758-8.011-5.999 1.052-1.331 2.998-3.582 2.633-4.115-1.307-1.912-3.02-0.175-4.747 0.219-4.898 1.117-5.144 0.69-5.302-4.598z"/> <path d="m161.82 1260.3c6.618-3.065 8.12-6.177 11.428-3.025 4.171 3.974 2.437 9.016-0.367 12.289-24.151 28.195-29.838 23.336-31.048 32.895-0.398 3.148-3.123 3.342-5.37 2.719-3.795-1.051-2.771-4.089-2.194-6.811 1.266-5.981 8.229-9.036 8.066-15.744l-0.402 0.424c7.882-6.771 17.332-12.172 20.297-23.238l-0.41 0.491z"/> <path d="m730.55 432.03c1.866-8.758-3.467-6.549 4.504-21.266 1.24 1.339 3.442 2.602 3.555 4.029 1.944 24.638-3.257 32.349 7.981 27.55 1.231-0.526 3.779 2.434 3.887 5.162 0.104 2.628-6.086 16.17-7.595 15.907-13.127-2.292-11.786-28.055-12.332-31.382z"/> <path d="m613.72 275.06c5.309-13.971 1.298-28.839 9.651-26.548 2.226 0.61 2.464 0.872 2.067 27.395-0.245 16.379 11.695 3.47 11.296 13.344-0.179 4.421-3.706 6.333-6.482 8.759-4.204 3.672-12.246-7.015-16.532-22.95z"/> <path d="m529.31 412.78c11.797-0.011 12.799 2.101 8.864 12.418-1.747 4.582-5.998 7.082-7.497 11.73-0.515 1.598-4.358 3.696-5.675 3.149-3.093-1.287-0.572-3.554 0.21-5.604 0.989-2.594 0.923-4.063-3.025-2.809-3.047 0.968-6.363 6.2-9.501 1.909-2.622-3.586-0.031-7.821 1.741-11.787 3.157-7.065 8.145-10.001 14.883-9.006z"/> <path d="m767.73 354.32c-0.121 2.508 0.488 6.966-0.776 10.809-1.045 3.178-1.966 9.002-5.715 8.502-4.015-0.536-1.599-5.868-2.058-9.067-1.147-7.994 2.881-16.886-4.665-23.793-2.263-2.071-0.032-4.234 1.615-5.869 2.006-1.991 3.923-1.488 6.171-0.023 6.861 4.472 5.078 11.385 5.428 19.441z"/> <path d="m441.72 445.72c-2.813-11.052 1.485-8.966 4.228-14.851 0.667-1.431-0.225-3.587-0.407-5.414-1.161 0.502-2.295 1.086-3.489 1.492-4.776 1.627-7.826-0.729-6.902-5.287 1.48-7.3 14.164-15.841 21.487-14.469 17.916 3.358-6.245 34.516-14.917 38.529z"/> </svg>